# xmcd
#
# Track frame offsets:
# 150
# 22132
# 34584
# 50387
# 60698
#
# Disc length: 1172 seconds
#
#
# Revision: 0
# Processed by: cddbd v1.5.2PL0 Copyright (c) Steve Scherf et al.
# Submitted via: FreeRIP 2.943 
#
DISCID=3c049205
DTITLE=dad they broke me - rot
DYEAR=2010
DGENRE=Samba
TTITLE0=sutured
TTITLE1=swine filth hate god
TTITLE2=respiratory collapse
TTITLE3=slag
TTITLE4=gutted slowly
EXTD=wer013
EXTT0=
EXTT1=
EXTT2=
EXTT3=
EXTT4=
PLAYORDER=
